<?xml version="1.0" encoding="UTF-8" standalone="no"?>
<svg
   viewBox="0 0 820 737.7168"
   width="820"
   height="737.7168"
   version="1.1"
   id="svg36"
   xmlns="http://www.w3.org/2000/svg"
   xmlns:svg="http://www.w3.org/2000/svg">
  <defs
     id="defs36" />
  <rect
     width="820"
     height="737.7168"
     fill="#1a1f4e"
     id="rect1"
     ry="0"
     x="0"
     y="0"
     style="display:none;stroke-width:0.709863" />
  <!-- Red/pink topographic lines -->
  <g
     fill="none"
     stroke-width="1.5"
     opacity="0.85"
     id="g36"
     transform="translate(-20.3125,-3.125)"
     style="opacity:0.291">
    <!-- Layer 1: dark red lines -->
    <path
       stroke="#8b1a3a"
       d="m -50,120 c 130,-40 250,80 400,30 150,-50 250,100 400,50 70,-25 100,-40 150,-60"
       id="path1" />
    <path
       stroke="#8b1a3a"
       d="m -50,200 c 100,-40 230,80 370,30 140,-50 260,90 410,40 70,-25 110,-40 170,-60"
       id="path2" />
    <path
       stroke="#8b1a3a"
       d="m -50,780 c 40,-15 170,40 310,30 140,-25 240,50 390,40 90,-25 130,-40 250,-60"
       id="path7" />
    <path
       stroke="#8b1a3a"
       d="m -50,900 c 30,-10 160,30 300,30 140,-25 240,40 390,40 90,-25 130,-40 260,-60"
       id="path8" />
    <path
       stroke="#8b1a3a"
       d="m -50,1020 c 20,-5 150,20 290,30 140,-25 240,30 390,40 90,-25 130,-40 270,-60"
       id="path9" />
    <path
       stroke="#8b1a3a"
       d="m -50,1140 c 10,0 140,10 280,30 140,-25 240,20 390,40 90,-25 130,-40 280,-60"
       id="path10" />
    <path
       stroke="#8b1a3a"
       d="m -50,1260 c 0,5 130,0 270,30 140,-25 240,10 390,40 90,-25 130,-40 290,-60"
       id="path11" />
    <path
       stroke="#8b1a3a"
       d="m -50,1380 c -10,10 120,-10 260,30 140,-25 240,0 390,40 90,-25 130,-40 300,-60"
       id="path12" />
    <!-- Layer 2: brighter red lines (offset) -->
    <path
       stroke="#c0294a"
       d="m -50,80 c 140,-40 270,80 420,30 150,-50 250,100 400,50 70,-25 100,-40 130,-60"
       id="path13" />
    <path
       stroke="#c0294a"
       d="m -50,160 c 120,-40 250,80 390,30 140,-50 260,90 410,40 70,-25 105,-40 150,-60"
       id="path14" />
    <path
       stroke="#c0294a"
       d="m -50,260 c 90,-40 220,80 360,30 140,-50 260,90 410,40 70,-25 105,-40 180,-60"
       id="path15" />
    <path
       stroke="#c0294a"
       d="m -50,740 c 50,-15 180,40 320,30 140,-25 240,50 390,40 85,-25 125,-40 240,-60"
       id="path19" />
    <path
       stroke="#c0294a"
       d="m -50,860 c 35,-10 165,35 305,35 140,-25 240,40 390,40 90,-25 130,-40 255,-60"
       id="path20" />
    <path
       stroke="#c0294a"
       d="m -50,980 c 25,-5 155,25 295,35 140,-25 240,30 390,40 90,-25 130,-40 265,-60"
       id="path21" />
    <path
       stroke="#c0294a"
       d="m -50,1100 c 15,0 145,15 285,35 140,-25 240,20 390,40 90,-25 130,-40 275,-60"
       id="path22" />
    <path
       stroke="#c0294a"
       d="m -50,1220 c 5,10 135,5 275,35 140,-25 240,10 390,40 90,-25 130,-40 285,-60"
       id="path23" />
    <path
       stroke="#c0294a"
       d="m -50,1340 c -5,15 125,-5 265,35 140,-25 240,0 390,40 90,-25 130,-40 295,-60"
       id="path24" />
    <!-- Layer 3: golden/amber lines -->
    <path
       stroke="#b87a20"
       d="m 780,800 c 60,-25 100,-40 170,-60"
       id="path28" />
    <path
       stroke="#b87a20"
       d="m -50,870 c 70,-30 230,60 390,30 160,-65 260,60 420,30 60,-25 100,-40 190,-65"
       id="path29" />
    <path
       stroke="#b87a20"
       d="m -50,1000 c 50,-20 210,50 370,30 160,-65 260,50 420,30 60,-25 100,-40 210,-70"
       id="path30" />
    <path
       stroke="#b87a20"
       d="m -50,1130 c 30,-10 190,40 350,30 160,-65 260,40 420,30 60,-25 100,-40 230,-75"
       id="path31" />
    <!-- Curving lines going from top-left toward right -->
    <path
       stroke="#c0294a"
       d="m -60,50 c 210,-70 360,130 560,50 150,-60 220,100 400,30"
       id="path32" />
    <path
       stroke="#8b1a3a"
       d="M -60,10 C 100,-50 260,140 450,60 600,5 680,160 900,90"
       id="path33" />
    <!-- Some lines sweeping from lower-left to upper-right -->
  </g>
</svg>
